{
	"asset":{
		"version":"2.0",
		"generator":"Created using the official Cinema 4D glTF Exporter 1.000x287526"
	},
	"scenes":[{
		"nodes":[0]
	}],
	"nodes":[{
		"children":[1],
		"name":"OBJ"
	},
	{
		"children":[2,
		3,
		4,
		5],
		"name":"DIE_INQUIETA",
		"translation":[0.0,
		5.0,
		-5.0],
		"rotation":[0.0,
		0.0,
		0.0,
		-1.0],
		"scale":[1.0,
		1.0,
		1.0]
	},
	{
		"name":"LIGHT",
		"mesh":0
	},
	{
		"name":"BACK",
		"mesh":1
	},
	{
		"name":"FRONT",
		"mesh":2
	},
	{
		"children":[6,
		13,
		14],
		"name":"GRIFO",
		"translation":[-3.1506487380790397e-15,
		402.0,
		-49.775978088378909],
		"rotation":[0.0,
		-1.0,
		0.0,
		-6.123234262925839e-17],
		"scale":[1.0,
		1.0,
		1.0]
	},
	{
		"children":[7,
		8,
		9,
		10,
		11,
		12],
		"name":"Mango",
		"translation":[1.0796509737613259e-29,
		0.0,
		84.40387725830078],
		"rotation":[0.0,
		-1.2246468525851679e-16,
		0.0,
		1.0],
		"scale":[1.0,
		1.0,
		1.0]
	},
	{
		"name":"Obj_000002",
		"translation":[-1.0846837446788912e-29,
		0.0,
		-84.40387725830078],
		"rotation":[0.0,
		0.0,
		0.0,
		-1.0],
		"scale":[1.0,
		1.0,
		1.0],
		"mesh":3
	},
	{
		"name":"Obj_000003",
		"translation":[-1.0846837446788912e-29,
		0.0,
		-84.40387725830078],
		"rotation":[0.0,
		0.0,
		0.0,
		-1.0],
		"scale":[1.0,
		1.0,
		1.0],
		"mesh":4
	},
	{
		"name":"Plastico",
		"translation":[-1.0846837446788912e-29,
		0.0,
		-84.40387725830078],
		"rotation":[0.0,
		0.0,
		0.0,
		-1.0],
		"scale":[1.0,
		1.0,
		1.0],
		"mesh":5
	},
	{
		"name":"Tornillo",
		"translation":[-1.0846837446788912e-29,
		0.0,
		-84.40387725830078],
		"rotation":[0.0,
		0.0,
		0.0,
		-1.0],
		"scale":[1.0,
		1.0,
		1.0],
		"mesh":6
	},
	{
		"name":"Perno",
		"translation":[-1.0846837446788912e-29,
		0.0,
		-84.40387725830078],
		"rotation":[0.0,
		0.0,
		0.0,
		-1.0],
		"scale":[1.0,
		1.0,
		1.0],
		"mesh":7
	},
	{
		"name":"Grifo",
		"translation":[-1.0846837446788912e-29,
		0.0,
		-84.40387725830078],
		"rotation":[0.0,
		0.0,
		0.0,
		-1.0],
		"scale":[1.0,
		1.0,
		1.0],
		"mesh":8
	},
	{
		"name":"Grifo_007",
		"mesh":9
	},
	{
		"name":"Cilindro",
		"translation":[-2.6736239226244145e-15,
		0.4375,
		-19.822574615478517],
		"rotation":[-3.0719530030864919e-8,
		0.7071067690849304,
		0.7071067690849304,
		3.0719530030864919e-8],
		"scale":[1.0,
		1.0,
		1.0],
		"mesh":10
	}],
	"meshes":[{
		"primitives":[{
			"attributes":{
				"POSITION":1
			},
			"indices":0,
			"material":0
		}]
	},
	{
		"primitives":[{
			"attributes":{
				"POSITION":3
			},
			"indices":2,
			"material":1
		}]
	},
	{
		"primitives":[{
			"attributes":{
				"POSITION":5
			},
			"indices":4,
			"material":2
		}]
	},
	{
		"primitives":[{
			"attributes":{
				"POSITION":7
			},
			"indices":6,
			"material":3
		}]
	},
	{
		"primitives":[{
			"attributes":{
				"POSITION":9
			},
			"indices":8,
			"material":3
		}]
	},
	{
		"primitives":[{
			"attributes":{
				"POSITION":11
			},
			"indices":10,
			"material":4
		}]
	},
	{
		"primitives":[{
			"attributes":{
				"POSITION":13
			},
			"indices":12,
			"material":5
		}]
	},
	{
		"primitives":[{
			"attributes":{
				"POSITION":15
			},
			"indices":14,
			"material":5
		}]
	},
	{
		"primitives":[{
			"attributes":{
				"POSITION":17
			},
			"indices":16,
			"material":4
		}]
	},
	{
		"primitives":[{
			"attributes":{
				"POSITION":19
			},
			"indices":18,
			"material":4
		}]
	},
	{
		"primitives":[{
			"attributes":{
				"POSITION":21,
				"TEXCOORD_0":22
			},
			"indices":20,
			"material":4
		}]
	}],
	"accessors":[{
		"bufferView":0,
		"type":"SCALAR",
		"componentType":5123,
		"count":190575,
		"byteOffset":0,
		"min":[0],
		"max":[31760]
	},
	{
		"bufferView":1,
		"type":"VEC3",
		"componentType":5126,
		"count":31761,
		"byteOffset":0,
		"min":[-41.16655349731445,
		0.0,
		23.80926513671875],
		"max":[41.16655349731445,
		530.0,
		32.91461181640625]
	},
	{
		"bufferView":2,
		"type":"SCALAR",
		"componentType":5123,
		"count":167688,
		"byteOffset":0,
		"min":[0],
		"max":[35103]
	},
	{
		"bufferView":3,
		"type":"VEC3",
		"componentType":5126,
		"count":35104,
		"byteOffset":0,
		"min":[-41.245094299316409,
		-1.3765919810615267e-29,
		-40.48396682739258],
		"max":[41.25102996826172,
		530.0,
		29.89498519897461]
	},
	{
		"bufferView":4,
		"type":"SCALAR",
		"componentType":5123,
		"count":172392,
		"byteOffset":0,
		"min":[0],
		"max":[38200]
	},
	{
		"bufferView":5,
		"type":"VEC3",
		"componentType":5126,
		"count":38201,
		"byteOffset":0,
		"min":[-41.013301849365237,
		0.0,
		26.828140258789064],
		"max":[41.01285934448242,
		530.0,
		40.484466552734378]
	},
	{
		"bufferView":6,
		"type":"SCALAR",
		"componentType":5123,
		"count":1074,
		"byteOffset":0,
		"min":[0],
		"max":[359]
	},
	{
		"bufferView":7,
		"type":"VEC3",
		"componentType":5126,
		"count":360,
		"byteOffset":0,
		"min":[-109.7950439453125,
		29.502857208251954,
		74.30719757080078],
		"max":[-44.79418182373047,
		42.49714279174805,
		80.2716293334961]
	},
	{
		"bufferView":8,
		"type":"SCALAR",
		"componentType":5123,
		"count":1032,
		"byteOffset":0,
		"min":[0],
		"max":[351]
	},
	{
		"bufferView":9,
		"type":"VEC3",
		"componentType":5126,
		"count":352,
		"byteOffset":0,
		"min":[-109.7950439453125,
		29.502857208251954,
		88.53612518310547],
		"max":[-44.79418182373047,
		42.49714279174805,
		94.50054931640625]
	},
	{
		"bufferView":10,
		"type":"SCALAR",
		"componentType":5123,
		"count":34011,
		"byteOffset":0,
		"min":[0],
		"max":[7652]
	},
	{
		"bufferView":11,
		"type":"VEC3",
		"componentType":5126,
		"count":7653,
		"byteOffset":0,
		"min":[-114.99726867675781,
		23.507532119750978,
		73.97250366210938],
		"max":[-15.0,
		48.49143981933594,
		94.83525085449219]
	},
	{
		"bufferView":12,
		"type":"SCALAR",
		"componentType":5123,
		"count":1086,
		"byteOffset":0,
		"min":[0],
		"max":[353]
	},
	{
		"bufferView":13,
		"type":"VEC3",
		"componentType":5126,
		"count":354,
		"byteOffset":0,
		"min":[-46.5,
		39.60982131958008,
		82.90387725830078],
		"max":[-43.5,
		47.645042419433597,
		85.90387725830078]
	},
	{
		"bufferView":14,
		"type":"SCALAR",
		"componentType":5123,
		"count":3564,
		"byteOffset":0,
		"min":[0],
		"max":[1147]
	},
	{
		"bufferView":15,
		"type":"VEC3",
		"componentType":5126,
		"count":1148,
		"byteOffset":0,
		"min":[-51.0,
		31.0,
		79.41374206542969],
		"max":[5.0,
		41.0,
		89.39400482177735]
	},
	{
		"bufferView":16,
		"type":"SCALAR",
		"componentType":5123,
		"count":17823,
		"byteOffset":0,
		"min":[0],
		"max":[3554]
	},
	{
		"bufferView":17,
		"type":"VEC3",
		"componentType":5126,
		"count":3555,
		"byteOffset":0,
		"min":[-12.706771850585938,
		24.052309036254884,
		71.69657897949219],
		"max":[12.706771850585938,
		54.0,
		97.11116790771485]
	},
	{
		"bufferView":18,
		"type":"SCALAR",
		"componentType":5123,
		"count":68751,
		"byteOffset":0,
		"min":[0],
		"max":[16719]
	},
	{
		"bufferView":19,
		"type":"VEC3",
		"componentType":5126,
		"count":16720,
		"byteOffset":0,
		"min":[-17.5,
		-84.5,
		-3.5514757401480889e-15],
		"max":[17.5,
		24.052309036254884,
		105.0]
	},
	{
		"bufferView":20,
		"type":"SCALAR",
		"componentType":5123,
		"count":6912,
		"byteOffset":0,
		"min":[0],
		"max":[1255]
	},
	{
		"bufferView":21,
		"type":"VEC3",
		"componentType":5126,
		"count":1256,
		"byteOffset":0,
		"min":[-18.511198043823243,
		-41.547325134277347,
		-18.511198043823243],
		"max":[18.511198043823243,
		41.547325134277347,
		18.511198043823243]
	},
	{
		"bufferView":21,
		"type":"VEC2",
		"componentType":5126,
		"count":1256,
		"byteOffset":12,
		"min":[0.0,
		0.0],
		"max":[1.0,
		1.0]
	}],
	"bufferViews":[{
		"buffer":0,
		"byteOffset":0,
		"byteLength":381150,
		"target":34963
	},
	{
		"buffer":0,
		"byteOffset":381152,
		"byteLength":381132,
		"target":34962
	},
	{
		"buffer":1,
		"byteOffset":0,
		"byteLength":335376,
		"target":34963
	},
	{
		"buffer":1,
		"byteOffset":335376,
		"byteLength":421248,
		"target":34962
	},
	{
		"buffer":2,
		"byteOffset":0,
		"byteLength":344784,
		"target":34963
	},
	{
		"buffer":2,
		"byteOffset":344784,
		"byteLength":458412,
		"target":34962
	},
	{
		"buffer":3,
		"byteOffset":0,
		"byteLength":2148,
		"target":34963
	},
	{
		"buffer":3,
		"byteOffset":2148,
		"byteLength":4320,
		"target":34962
	},
	{
		"buffer":4,
		"byteOffset":0,
		"byteLength":2064,
		"target":34963
	},
	{
		"buffer":4,
		"byteOffset":2064,
		"byteLength":4224,
		"target":34962
	},
	{
		"buffer":5,
		"byteOffset":0,
		"byteLength":68022,
		"target":34963
	},
	{
		"buffer":5,
		"byteOffset":68024,
		"byteLength":91836,
		"target":34962
	},
	{
		"buffer":6,
		"byteOffset":0,
		"byteLength":2172,
		"target":34963
	},
	{
		"buffer":6,
		"byteOffset":2172,
		"byteLength":4248,
		"target":34962
	},
	{
		"buffer":7,
		"byteOffset":0,
		"byteLength":7128,
		"target":34963
	},
	{
		"buffer":7,
		"byteOffset":7128,
		"byteLength":13776,
		"target":34962
	},
	{
		"buffer":8,
		"byteOffset":0,
		"byteLength":35646,
		"target":34963
	},
	{
		"buffer":8,
		"byteOffset":35648,
		"byteLength":42660,
		"target":34962
	},
	{
		"buffer":9,
		"byteOffset":0,
		"byteLength":137502,
		"target":34963
	},
	{
		"buffer":9,
		"byteOffset":137504,
		"byteLength":200640,
		"target":34962
	},
	{
		"buffer":10,
		"byteOffset":0,
		"byteLength":13824,
		"target":34963
	},
	{
		"buffer":10,
		"byteOffset":13824,
		"byteLength":25120,
		"target":34962,
		"byteStride":20
	}],
	"buffers":[{
		"uri":"data:application/octet-stream;base64,",
		"byteLength":762284
	},
	{
		"uri":"data:application/octet-stream;base64,",
		"byteLength":756624
	},
	{
		"uri":"data:application/octet-stream;base64,",
		"byteLength":803196
	},
	{
		"uri":"data:application/octet-stream;base64,",
		"byteLength":6468
	},
	{
		"uri":"data:application/octet-stream;base64,",
		"byteLength":6288
	},
	{
		"uri":"data:application/octet-stream;base64,",
		"byteLength":159860
	},
	{
		"uri":"data:application/octet-stream;base64,",
		"byteLength":6420
	},
	{
		"uri":"data:application/octet-stream;base64,",
		"byteLength":20904
	},
	{
		"uri":"data:application/octet-stream;base64,",
		"byteLength":78308
	},
	{
		"uri":"data:application/octet-stream;base64,",
		"byteLength":338144
	},
	{
		"uri":"data:application/octet-stream;base64,",
		"byteLength":38944
	}],
	"images":[{
		"uri":"data:image/jpeg;base64,"
	},
	{
		"uri":"data:image/jpeg;base64,"
	}],
	"samplers":[{
		"magFilter":9729,
		"minFilter":9729,
		"wrapS":10497,
		"wrapT":10497
	},
	{
		"magFilter":9729,
		"minFilter":9729,
		"wrapS":10497,
		"wrapT":10497
	}],
	"textures":[{
		"sampler":0,
		"source":0
	},
	{
		"sampler":1,
		"source":1
	}],
	"materials":[{
		"pbrMetallicRoughness":{
			"baseColorFactor":[1.0,
			1.0,
			1.0,
			1.0],
			"metallicFactor":1.0,
			"roughnessFactor":1.0
		},
		"emissiveFactor":[1.0,
		1.0,
		1.0],
		"alphaMode":"OPAQUE",
		"doubleSided":false,
		"name":"LUZ"
	},
	{
		"pbrMetallicRoughness":{
			"baseColorFactor":[0.9098039215686274,
			0.8823529411764706,
			0.8352941176470589,
			1.0],
			"metallicFactor":1.0,
			"roughnessFactor":0.25000000000000008
		},
		"emissiveFactor":[0.0,
		0.0,
		0.0],
		"alphaMode":"OPAQUE",
		"doubleSided":false,
		"name":"BASICO CREMA"
	},
	{
		"pbrMetallicRoughness":{
			"baseColorTexture":{
				"index":0
			},
			"baseColorFactor":[1.0,
			1.0,
			1.0,
			0.0],
			"metallicFactor":1.0,
			"roughnessFactor":1.0
		},
		"emissiveFactor":[0.0,
		0.0,
		0.0],
		"alphaMode":"BLEND",
		"doubleSided":false,
		"name":"LOGO SM"
	},
	{
		"pbrMetallicRoughness":{
			"baseColorTexture":{
				"index":1
			},
			"baseColorFactor":[1.0,
			1.0,
			1.0,
			0.0],
			"metallicFactor":1.0,
			"roughnessFactor":1.0
		},
		"emissiveFactor":[0.0,
		0.0,
		0.0],
		"alphaMode":"BLEND",
		"doubleSided":false,
		"name":"LOGO RECTO"
	},
	{
		"pbrMetallicRoughness":{
			"baseColorFactor":[0.6938775510204082,
			0.5284274293659069,
			0.33934157604647699,
			1.0],
			"metallicFactor":1.0,
			"roughnessFactor":0.05
		},
		"emissiveFactor":[0.0,
		0.0,
		0.0],
		"alphaMode":"OPAQUE",
		"doubleSided":false,
		"name":"ORO"
	},
	{
		"pbrMetallicRoughness":{
			"baseColorFactor":[0.8,
			0.8,
			0.8,
			1.0],
			"metallicFactor":1.0,
			"roughnessFactor":0.0
		},
		"emissiveFactor":[0.0,
		0.0,
		0.0],
		"alphaMode":"OPAQUE",
		"doubleSided":false,
		"name":"CROMO"
	}]
}