{
    "asset" : {
        "generator" : "Khronos glTF Blender I/O v0.9.36",
        "version" : "2.0"
    },
    "scene" : 0,
    "scenes" : [
        {
            "name" : "Scene",
            "nodes" : [
                0,
                1,
                2,
                3,
                4,
                5,
                6,
                7,
                8,
                9,
                10
            ]
        }
    ],
    "nodes" : [
        {
            "mesh" : 0,
            "name" : "BACK_ID24",
            "rotation" : [
                0.7071068286895752,
                0,
                0,
                0.7071067094802856
            ],
            "scale" : [
                0.18989992141723633,
                0.18989992141723633,
                0.18989992141723633
            ]
        },
        {
            "mesh" : 1,
            "name" : "Cilindro_ID105",
            "rotation" : [
                0.7071068286895752,
                0,
                0,
                0.7071067094802856
            ],
            "scale" : [
                0.18989992141723633,
                0.18989992141723633,
                0.18989992141723633
            ]
        },
        {
            "mesh" : 2,
            "name" : "FRONT_ID33",
            "rotation" : [
                0.7071068286895752,
                0,
                0,
                0.7071067094802856
            ],
            "scale" : [
                0.18989992141723633,
                0.18989992141723633,
                0.18989992141723633
            ]
        },
        {
            "mesh" : 3,
            "name" : "Grifo_ID87",
            "rotation" : [
                0.7071068286895752,
                0,
                0,
                0.7071067094802856
            ],
            "scale" : [
                0.18989992141723633,
                0.18989992141723633,
                0.18989992141723633
            ]
        },
        {
            "mesh" : 4,
            "name" : "Grifo_007_ID96",
            "rotation" : [
                0.7071068286895752,
                0,
                0,
                0.7071067094802856
            ],
            "scale" : [
                0.18989992141723633,
                0.18989992141723633,
                0.18989992141723633
            ]
        },
        {
            "mesh" : 5,
            "name" : "LIGHT_ID15",
            "rotation" : [
                0.7071068286895752,
                0,
                0,
                0.7071067094802856
            ],
            "scale" : [
                0.18989992141723633,
                0.18989992141723633,
                0.18989992141723633
            ]
        },
        {
            "mesh" : 6,
            "name" : "Obj_000002_ID42",
            "rotation" : [
                0.7071068286895752,
                0,
                0,
                0.7071067094802856
            ],
            "scale" : [
                0.18989992141723633,
                0.18989992141723633,
                0.18989992141723633
            ]
        },
        {
            "mesh" : 7,
            "name" : "Obj_000003_ID51",
            "rotation" : [
                0.7071068286895752,
                0,
                0,
                0.7071067094802856
            ],
            "scale" : [
                0.18989992141723633,
                0.18989992141723633,
                0.18989992141723633
            ]
        },
        {
            "mesh" : 8,
            "name" : "Perno_ID78",
            "rotation" : [
                0.7071068286895752,
                0,
                0,
                0.7071067094802856
            ],
            "scale" : [
                0.18989992141723633,
                0.18989992141723633,
                0.18989992141723633
            ]
        },
        {
            "mesh" : 9,
            "name" : "Plastico_ID60",
            "rotation" : [
                0.7071068286895752,
                0,
                0,
                0.7071067094802856
            ],
            "scale" : [
                0.18989992141723633,
                0.18989992141723633,
                0.18989992141723633
            ]
        },
        {
            "mesh" : 10,
            "name" : "Tornillo_ID69",
            "rotation" : [
                0.7071068286895752,
                0,
                0,
                0.7071067094802856
            ],
            "scale" : [
                0.18989992141723633,
                0.18989992141723633,
                0.18989992141723633
            ]
        }
    ],
    "materials" : [
        {
            "doubleSided" : true,
            "name" : "BASICO_CREMA",
            "pbrMetallicRoughness" : {
                "baseColorFactor" : [
                    0.9098039865493774,
                    0.8823530077934265,
                    0.8352940082550049,
                    1
                ],
                "metallicFactor" : 0.10000000149011612,
                "roughnessFactor" : 0.4000000059604645
            }
        },
        {
            "doubleSided" : true,
            "name" : "ORO",
            "pbrMetallicRoughness" : {
                "baseColorFactor" : [
                    0.6938779950141907,
                    0.5919507741928101,
                    0.050682079046964645,
                    1
                ],
                "metallicFactor" : 0.9800000190734863,
                "roughnessFactor" : 0.4000000059604645
            }
        },
        {
            "doubleSided" : true,
            "name" : "BASICO_CREMA.1",
            "pbrMetallicRoughness" : {
                "baseColorFactor" : [
                    0.8000000715255737,
                    0.7204397916793823,
                    0.1681937277317047,
                    1
                ],
                "metallicFactor" : 0.10000000149011612,
                "roughnessFactor" : 0.4000000059604645
            }
        },
        {
            "doubleSided" : true,
            "name" : "LUZ",
            "pbrMetallicRoughness" : {
                "baseColorFactor" : [
                    0.800000011920929,
                    0.800000011920929,
                    0.800000011920929,
                    1
                ],
                "metallicFactor" : 0,
                "roughnessFactor" : 0.4000000059604645
            }
        },
        {
            "doubleSided" : true,
            "name" : "CROMO",
            "pbrMetallicRoughness" : {
                "baseColorFactor" : [
                    0.800000011920929,
                    0.800000011920929,
                    0.800000011920929,
                    1
                ],
                "metallicFactor" : 1,
                "roughnessFactor" : 0.4000000059604645
            }
        }
    ],
    "meshes" : [
        {
            "name" : "BACK_ID24",
            "primitives" : [
                {
                    "attributes" : {
                        "POSITION" : 0
                    },
                    "indices" : 1,
                    "material" : 0
                }
            ]
        },
        {
            "name" : "Cilindro_ID105",
            "primitives" : [
                {
                    "attributes" : {
                        "POSITION" : 2
                    },
                    "indices" : 3,
                    "material" : 1
                }
            ]
        },
        {
            "name" : "FRONT_ID33",
            "primitives" : [
                {
                    "attributes" : {
                        "POSITION" : 4
                    },
                    "indices" : 5,
                    "material" : 2
                }
            ]
        },
        {
            "name" : "Grifo_ID87",
            "primitives" : [
                {
                    "attributes" : {
                        "POSITION" : 6
                    },
                    "indices" : 7,
                    "material" : 1
                }
            ]
        },
        {
            "name" : "Grifo_007_ID96",
            "primitives" : [
                {
                    "attributes" : {
                        "POSITION" : 8
                    },
                    "indices" : 9,
                    "material" : 1
                }
            ]
        },
        {
            "name" : "LIGHT_ID15",
            "primitives" : [
                {
                    "attributes" : {
                        "POSITION" : 10
                    },
                    "indices" : 11,
                    "material" : 3
                },
                {
                    "attributes" : {
                        "POSITION" : 12
                    },
                    "indices" : 13,
                    "material" : 3
                },
                {
                    "attributes" : {
                        "POSITION" : 14
                    },
                    "indices" : 15,
                    "material" : 3
                }
            ]
        },
        {
            "name" : "Obj_000002_ID42",
            "primitives" : [
                {
                    "attributes" : {
                        "POSITION" : 16
                    },
                    "indices" : 17,
                    "material" : 0
                }
            ]
        },
        {
            "name" : "Obj_000003_ID51",
            "primitives" : [
                {
                    "attributes" : {
                        "POSITION" : 18
                    },
                    "indices" : 19,
                    "material" : 0
                }
            ]
        },
        {
            "name" : "Perno_ID78",
            "primitives" : [
                {
                    "attributes" : {
                        "POSITION" : 20
                    },
                    "indices" : 21,
                    "material" : 4
                }
            ]
        },
        {
            "name" : "Plastico_ID60",
            "primitives" : [
                {
                    "attributes" : {
                        "POSITION" : 22
                    },
                    "indices" : 23,
                    "material" : 1
                }
            ]
        },
        {
            "name" : "Tornillo_ID69",
            "primitives" : [
                {
                    "attributes" : {
                        "POSITION" : 24
                    },
                    "indices" : 25,
                    "material" : 4
                }
            ]
        }
    ],
    "accessors" : [
        {
            "bufferView" : 0,
            "componentType" : 5126,
            "count" : 54709,
            "max" : [
                0.4125100076198578,
                0.2489510029554367,
                -0.05000000074505806
            ],
            "min" : [
                -0.41245099902153015,
                -0.45483899116516113,
                -5.349999904632568
            ],
            "type" : "VEC3"
        },
        {
            "bufferView" : 1,
            "componentType" : 5123,
            "count" : 167688,
            "type" : "SCALAR"
        },
        {
            "bufferView" : 2,
            "componentType" : 5126,
            "count" : 4394,
            "max" : [
                0.18511199951171875,
                0.06593900173902512,
                -3.889267921447754
            ],
            "min" : [
                -0.18511199951171875,
                -0.7650070190429688,
                -4.259491920471191
            ],
            "type" : "VEC3"
        },
        {
            "bufferView" : 3,
            "componentType" : 5123,
            "count" : 6912,
            "type" : "SCALAR"
        },
        {
            "bufferView" : 4,
            "componentType" : 5126,
            "count" : 53304,
            "max" : [
                0.41012901067733765,
                0.3548460006713867,
                -0.05000000074505806
            ],
            "min" : [
                -0.4101330041885376,
                0.21828100085258484,
                -5.349999904632568
            ],
            "type" : "VEC3"
        },
        {
            "bufferView" : 5,
            "componentType" : 5123,
            "count" : 172392,
            "type" : "SCALAR"
        },
        {
            "bufferView" : 6,
            "componentType" : 5126,
            "count" : 10881,
            "max" : [
                0.12706799805164337,
                -1.2647260427474976,
                -4.31052303314209
            ],
            "min" : [
                -0.12706799805164337,
                -1.5188720226287842,
                -4.610000133514404
            ],
            "type" : "VEC3"
        },
        {
            "bufferView" : 7,
            "componentType" : 5123,
            "count" : 17823,
            "type" : "SCALAR"
        },
        {
            "bufferView" : 8,
            "componentType" : 5126,
            "count" : 52693,
            "max" : [
                0.17499999701976776,
                -0.547760009765625,
                -3.2249999046325684
            ],
            "min" : [
                -0.17499999701976776,
                -1.5977599620819092,
                -4.31052303314209
            ],
            "type" : "VEC3"
        },
        {
            "bufferView" : 9,
            "componentType" : 5123,
            "count" : 68751,
            "type" : "SCALAR"
        },
        {
            "bufferView" : 10,
            "componentType" : 5126,
            "count" : 65533,
            "max" : [
                0.41166600584983826,
                0.2791469991207123,
                -0.05000000074505806
            ],
            "min" : [
                -0.41166600584983826,
                0.18809300661087036,
                -5.349999904632568
            ],
            "type" : "VEC3"
        },
        {
            "bufferView" : 11,
            "componentType" : 5123,
            "count" : 148725,
            "type" : "SCALAR"
        },
        {
            "bufferView" : 12,
            "componentType" : 5126,
            "count" : 11088,
            "max" : [
                0.41016700863838196,
                0.2777610123157501,
                -0.05000000074505806
            ],
            "min" : [
                -0.41166600584983826,
                0.18809300661087036,
                -5.349999904632568
            ],
            "type" : "VEC3"
        },
        {
            "bufferView" : 13,
            "componentType" : 5123,
            "count" : 36468,
            "type" : "SCALAR"
        },
        {
            "bufferView" : 14,
            "componentType" : 5126,
            "count" : 1886,
            "max" : [
                -0.22712400555610657,
                0.2535040080547333,
                -0.05000000074505806
            ],
            "min" : [
                -0.3916749954223633,
                0.1903200000524521,
                -5.349890232086182
            ],
            "type" : "VEC3"
        },
        {
            "bufferView" : 15,
            "componentType" : 5123,
            "count" : 5382,
            "type" : "SCALAR"
        },
        {
            "bufferView" : 16,
            "componentType" : 5126,
            "count" : 604,
            "max" : [
                1.0979499816894531,
                -1.2908320426940918,
                -4.3650288581848145
            ],
            "min" : [
                0.44794198870658875,
                -1.3504760265350342,
                -4.494970798492432
            ],
            "type" : "VEC3"
        },
        {
            "bufferView" : 17,
            "componentType" : 5123,
            "count" : 1074,
            "type" : "SCALAR"
        },
        {
            "bufferView" : 18,
            "componentType" : 5126,
            "count" : 552,
            "max" : [
                1.0979499816894531,
                -1.4331209659576416,
                -4.3650288581848145
            ],
            "min" : [
                0.44794198870658875,
                -1.492764949798584,
                -4.494970798492432
            ],
            "type" : "VEC3"
        },
        {
            "bufferView" : 19,
            "componentType" : 5123,
            "count" : 1032,
            "type" : "SCALAR"
        },
        {
            "bufferView" : 20,
            "componentType" : 5126,
            "count" : 2474,
            "max" : [
                0.5099999904632568,
                -1.3418970108032227,
                -4.380000114440918
            ],
            "min" : [
                -0.05000000074505806,
                -1.4416999816894531,
                -4.480000019073486
            ],
            "type" : "VEC3"
        },
        {
            "bufferView" : 21,
            "componentType" : 5123,
            "count" : 3564,
            "type" : "SCALAR"
        },
        {
            "bufferView" : 22,
            "componentType" : 5126,
            "count" : 22439,
            "max" : [
                1.1499700546264648,
                -1.2874850034713745,
                -4.305075168609619
            ],
            "min" : [
                0.15000000596046448,
                -1.4961129426956177,
                -4.5549139976501465
            ],
            "type" : "VEC3"
        },
        {
            "bufferView" : 23,
            "componentType" : 5123,
            "count" : 34011,
            "type" : "SCALAR"
        },
        {
            "bufferView" : 24,
            "componentType" : 5126,
            "count" : 953,
            "max" : [
                0.4650000035762787,
                -1.3767989873886108,
                -4.466097831726074
            ],
            "min" : [
                0.4350000023841858,
                -1.4067989587783813,
                -4.546450138092041
            ],
            "type" : "VEC3"
        },
        {
            "bufferView" : 25,
            "componentType" : 5123,
            "count" : 1086,
            "type" : "SCALAR"
        }
    ],
    "bufferViews" : [
        {
            "buffer" : 0,
            "byteLength" : 656508,
            "byteOffset" : 0
        },
        {
            "buffer" : 0,
            "byteLength" : 335376,
            "byteOffset" : 656508
        },
        {
            "buffer" : 0,
            "byteLength" : 52728,
            "byteOffset" : 991884
        },
        {
            "buffer" : 0,
            "byteLength" : 13824,
            "byteOffset" : 1044612
        },
        {
            "buffer" : 0,
            "byteLength" : 639648,
            "byteOffset" : 1058436
        },
        {
            "buffer" : 0,
            "byteLength" : 344784,
            "byteOffset" : 1698084
        },
        {
            "buffer" : 0,
            "byteLength" : 130572,
            "byteOffset" : 2042868
        },
        {
            "buffer" : 0,
            "byteLength" : 35646,
            "byteOffset" : 2173440
        },
        {
            "buffer" : 0,
            "byteLength" : 632316,
            "byteOffset" : 2209088
        },
        {
            "buffer" : 0,
            "byteLength" : 137502,
            "byteOffset" : 2841404
        },
        {
            "buffer" : 0,
            "byteLength" : 786396,
            "byteOffset" : 2978908
        },
        {
            "buffer" : 0,
            "byteLength" : 297450,
            "byteOffset" : 3765304
        },
        {
            "buffer" : 0,
            "byteLength" : 133056,
            "byteOffset" : 4062756
        },
        {
            "buffer" : 0,
            "byteLength" : 72936,
            "byteOffset" : 4195812
        },
        {
            "buffer" : 0,
            "byteLength" : 22632,
            "byteOffset" : 4268748
        },
        {
            "buffer" : 0,
            "byteLength" : 10764,
            "byteOffset" : 4291380
        },
        {
            "buffer" : 0,
            "byteLength" : 7248,
            "byteOffset" : 4302144
        },
        {
            "buffer" : 0,
            "byteLength" : 2148,
            "byteOffset" : 4309392
        },
        {
            "buffer" : 0,
            "byteLength" : 6624,
            "byteOffset" : 4311540
        },
        {
            "buffer" : 0,
            "byteLength" : 2064,
            "byteOffset" : 4318164
        },
        {
            "buffer" : 0,
            "byteLength" : 29688,
            "byteOffset" : 4320228
        },
        {
            "buffer" : 0,
            "byteLength" : 7128,
            "byteOffset" : 4349916
        },
        {
            "buffer" : 0,
            "byteLength" : 269268,
            "byteOffset" : 4357044
        },
        {
            "buffer" : 0,
            "byteLength" : 68022,
            "byteOffset" : 4626312
        },
        {
            "buffer" : 0,
            "byteLength" : 11436,
            "byteOffset" : 4694336
        },
        {
            "buffer" : 0,
            "byteLength" : 2172,
            "byteOffset" : 4705772
        }
    ],
    "buffers" : [
        {
            "byteLength" : 4707944,
            "uri" : "INQ.bin"
        }
    ]
}
