{
    "asset" : {
        "generator" : "Khronos glTF Blender I/O v0.9.36",
        "version" : "2.0"
    },
    "scene" : 0,
    "scenes" : [
        {
            "name" : "Scene",
            "nodes" : [
                13
            ]
        }
    ],
    "nodes" : [
        {
            "mesh" : 0,
            "name" : "BACK"
        },
        {
            "mesh" : 1,
            "name" : "FRONT"
        },
        {
            "mesh" : 2,
            "name" : "Cilindro",
            "rotation" : [
                0,
                -0.7071067094802856,
                0.7071068286895752,
                2.247644914632474e-08
            ],
            "translation" : [
                0,
                -19.822574615478516,
                -0.4375
            ]
        },
        {
            "mesh" : 3,
            "name" : "Grifo_007"
        },
        {
            "mesh" : 4,
            "name" : "Grifo",
            "translation" : [
                0,
                -84.40387725830078,
                0
            ]
        },
        {
            "mesh" : 5,
            "name" : "Obj_000002",
            "translation" : [
                0,
                -84.40387725830078,
                0
            ]
        },
        {
            "mesh" : 6,
            "name" : "Obj_000003",
            "translation" : [
                0,
                -84.40387725830078,
                0
            ]
        },
        {
            "mesh" : 7,
            "name" : "Perno",
            "translation" : [
                0,
                -84.40387725830078,
                0
            ]
        },
        {
            "mesh" : 8,
            "name" : "Plastico",
            "translation" : [
                0,
                -84.40387725830078,
                0
            ]
        },
        {
            "mesh" : 9,
            "name" : "Tornillo",
            "translation" : [
                0,
                -84.40387725830078,
                0
            ]
        },
        {
            "children" : [
                4,
                5,
                6,
                7,
                8,
                9
            ],
            "name" : "Mango",
            "translation" : [
                0,
                84.40387725830078,
                0
            ]
        },
        {
            "children" : [
                2,
                3,
                10
            ],
            "name" : "GRIFO",
            "rotation" : [
                0,
                0,
                -1,
                -4.371139183945161e-08
            ],
            "translation" : [
                0,
                -49.775978088378906,
                -402
            ]
        },
        {
            "mesh" : 10,
            "name" : "LIGHT"
        },
        {
            "children" : [
                0,
                1,
                11,
                12
            ],
            "name" : "DIE_INQUIETA",
            "rotation" : [
                0.7071068286895752,
                0,
                0,
                0.7071067094802856
            ],
            "scale" : [
                0.009999999776482582,
                0.009999999776482582,
                0.009999999776482582
            ],
            "translation" : [
                0,
                0.04999999701976776,
                -0.04999999701976776
            ]
        }
    ],
    "materials" : [
        {
            "doubleSided" : true,
            "name" : "BASICO CREMA",
            "pbrMetallicRoughness" : {
                "baseColorFactor" : [
                    0.9098039269447327,
                    0.8823529481887817,
                    0.8352941274642944,
                    1
                ],
                "metallicFactor" : 0.10000000149011612,
                "roughnessFactor" : 0.4343145787715912
            }
        },
        {
            "doubleSided" : true,
            "name" : "ORO.002",
            "pbrMetallicRoughness" : {
                "baseColorFactor" : [
                    0.6938775777816772,
                    0.382930725812912,
                    0.0740569606423378,
                    1
                ],
                "metallicFactor" : 0.9800000190734863,
                "roughnessFactor" : 0.7621585726737976
            }
        },
        {
            "doubleSided" : true,
            "name" : "CROMO.002",
            "pbrMetallicRoughness" : {
                "baseColorFactor" : [
                    1,
                    1,
                    1,
                    1
                ],
                "metallicFactor" : 0,
                "roughnessFactor" : 0.4343145787715912
            }
        },
        {
            "doubleSided" : true,
            "emissiveFactor" : [
                1,
                1,
                1
            ],
            "name" : "LUZ.002",
            "pbrMetallicRoughness" : {}
        }
    ],
    "meshes" : [
        {
            "name" : "Mesh.001",
            "primitives" : [
                {
                    "attributes" : {
                        "POSITION" : 0,
                        "NORMAL" : 1,
                        "TEXCOORD_0" : 2
                    },
                    "indices" : 3,
                    "material" : 0
                }
            ]
        },
        {
            "name" : "Mesh.002",
            "primitives" : [
                {
                    "attributes" : {
                        "POSITION" : 4,
                        "NORMAL" : 5,
                        "TEXCOORD_0" : 6,
                        "TEXCOORD_1" : 7
                    },
                    "indices" : 8
                }
            ]
        },
        {
            "name" : "Mesh.010",
            "primitives" : [
                {
                    "attributes" : {
                        "POSITION" : 9,
                        "NORMAL" : 10,
                        "TEXCOORD_0" : 11
                    },
                    "indices" : 12,
                    "material" : 1
                }
            ]
        },
        {
            "name" : "Mesh.009",
            "primitives" : [
                {
                    "attributes" : {
                        "POSITION" : 13,
                        "NORMAL" : 14
                    },
                    "indices" : 15,
                    "material" : 1
                }
            ]
        },
        {
            "name" : "Mesh.008",
            "primitives" : [
                {
                    "attributes" : {
                        "POSITION" : 16,
                        "NORMAL" : 17
                    },
                    "indices" : 18,
                    "material" : 1
                }
            ]
        },
        {
            "name" : "Mesh.003",
            "primitives" : [
                {
                    "attributes" : {
                        "POSITION" : 19,
                        "NORMAL" : 20,
                        "TEXCOORD_0" : 21
                    },
                    "indices" : 22,
                    "material" : 0
                }
            ]
        },
        {
            "name" : "Mesh.004",
            "primitives" : [
                {
                    "attributes" : {
                        "POSITION" : 23,
                        "NORMAL" : 24,
                        "TEXCOORD_0" : 25
                    },
                    "indices" : 26,
                    "material" : 0
                }
            ]
        },
        {
            "name" : "Mesh.007",
            "primitives" : [
                {
                    "attributes" : {
                        "POSITION" : 27,
                        "NORMAL" : 28
                    },
                    "indices" : 29,
                    "material" : 2
                }
            ]
        },
        {
            "name" : "Mesh.005",
            "primitives" : [
                {
                    "attributes" : {
                        "POSITION" : 30,
                        "NORMAL" : 31
                    },
                    "indices" : 32,
                    "material" : 1
                }
            ]
        },
        {
            "name" : "Mesh.006",
            "primitives" : [
                {
                    "attributes" : {
                        "POSITION" : 33,
                        "NORMAL" : 34
                    },
                    "indices" : 35,
                    "material" : 2
                }
            ]
        },
        {
            "name" : "Mesh",
            "primitives" : [
                {
                    "attributes" : {
                        "POSITION" : 36,
                        "NORMAL" : 37
                    },
                    "indices" : 38,
                    "material" : 3
                },
                {
                    "attributes" : {
                        "POSITION" : 39,
                        "NORMAL" : 40
                    },
                    "indices" : 41,
                    "material" : 3
                },
                {
                    "attributes" : {
                        "POSITION" : 42,
                        "NORMAL" : 43
                    },
                    "indices" : 44,
                    "material" : 3
                }
            ]
        }
    ],
    "accessors" : [
        {
            "bufferView" : 0,
            "componentType" : 5126,
            "count" : 54693,
            "max" : [
                41.25102996826172,
                29.89498519897461,
                1.3765919810615267e-29
            ],
            "min" : [
                -41.245094299316406,
                -40.48396682739258,
                -530
            ],
            "type" : "VEC3"
        },
        {
            "bufferView" : 1,
            "componentType" : 5126,
            "count" : 54693,
            "type" : "VEC3"
        },
        {
            "bufferView" : 2,
            "componentType" : 5126,
            "count" : 54693,
            "type" : "VEC2"
        },
        {
            "bufferView" : 3,
            "componentType" : 5123,
            "count" : 167688,
            "type" : "SCALAR"
        },
        {
            "bufferView" : 4,
            "componentType" : 5126,
            "count" : 53199,
            "max" : [
                41.01285934448242,
                40.484466552734375,
                0
            ],
            "min" : [
                -41.013301849365234,
                26.828140258789062,
                -530
            ],
            "type" : "VEC3"
        },
        {
            "bufferView" : 5,
            "componentType" : 5126,
            "count" : 53199,
            "type" : "VEC3"
        },
        {
            "bufferView" : 6,
            "componentType" : 5126,
            "count" : 53199,
            "type" : "VEC2"
        },
        {
            "bufferView" : 7,
            "componentType" : 5126,
            "count" : 53199,
            "type" : "VEC2"
        },
        {
            "bufferView" : 8,
            "componentType" : 5123,
            "count" : 172392,
            "type" : "SCALAR"
        },
        {
            "bufferView" : 9,
            "componentType" : 5126,
            "count" : 4540,
            "max" : [
                18.511198043823242,
                18.511198043823242,
                41.547325134277344
            ],
            "min" : [
                -18.511198043823242,
                -18.511198043823242,
                -41.547325134277344
            ],
            "type" : "VEC3"
        },
        {
            "bufferView" : 10,
            "componentType" : 5126,
            "count" : 4540,
            "type" : "VEC3"
        },
        {
            "bufferView" : 11,
            "componentType" : 5126,
            "count" : 4540,
            "type" : "VEC2"
        },
        {
            "bufferView" : 12,
            "componentType" : 5123,
            "count" : 6912,
            "type" : "SCALAR"
        },
        {
            "bufferView" : 13,
            "componentType" : 5126,
            "count" : 52587,
            "max" : [
                17.5,
                105,
                84.5
            ],
            "min" : [
                -17.5,
                -3.5514757401480888e-15,
                -24.052309036254883
            ],
            "type" : "VEC3"
        },
        {
            "bufferView" : 14,
            "componentType" : 5126,
            "count" : 52587,
            "type" : "VEC3"
        },
        {
            "bufferView" : 15,
            "componentType" : 5123,
            "count" : 68751,
            "type" : "SCALAR"
        },
        {
            "bufferView" : 16,
            "componentType" : 5126,
            "count" : 10851,
            "max" : [
                12.706771850585938,
                97.11116790771484,
                -24.052309036254883
            ],
            "min" : [
                -12.706771850585938,
                71.69657897949219,
                -54
            ],
            "type" : "VEC3"
        },
        {
            "bufferView" : 17,
            "componentType" : 5126,
            "count" : 10851,
            "type" : "VEC3"
        },
        {
            "bufferView" : 18,
            "componentType" : 5123,
            "count" : 17823,
            "type" : "SCALAR"
        },
        {
            "bufferView" : 19,
            "componentType" : 5126,
            "count" : 603,
            "max" : [
                -44.79418182373047,
                80.2716293334961,
                -29.502857208251953
            ],
            "min" : [
                -109.7950439453125,
                74.30719757080078,
                -42.49714279174805
            ],
            "type" : "VEC3"
        },
        {
            "bufferView" : 20,
            "componentType" : 5126,
            "count" : 603,
            "type" : "VEC3"
        },
        {
            "bufferView" : 21,
            "componentType" : 5126,
            "count" : 603,
            "type" : "VEC2"
        },
        {
            "bufferView" : 22,
            "componentType" : 5123,
            "count" : 1074,
            "type" : "SCALAR"
        },
        {
            "bufferView" : 23,
            "componentType" : 5126,
            "count" : 560,
            "max" : [
                -44.79418182373047,
                94.50054931640625,
                -29.502857208251953
            ],
            "min" : [
                -109.7950439453125,
                88.53612518310547,
                -42.49714279174805
            ],
            "type" : "VEC3"
        },
        {
            "bufferView" : 24,
            "componentType" : 5126,
            "count" : 560,
            "type" : "VEC3"
        },
        {
            "bufferView" : 25,
            "componentType" : 5126,
            "count" : 560,
            "type" : "VEC2"
        },
        {
            "bufferView" : 26,
            "componentType" : 5123,
            "count" : 1032,
            "type" : "SCALAR"
        },
        {
            "bufferView" : 27,
            "componentType" : 5126,
            "count" : 2464,
            "max" : [
                5,
                89.39400482177734,
                -31
            ],
            "min" : [
                -51,
                79.41374206542969,
                -41
            ],
            "type" : "VEC3"
        },
        {
            "bufferView" : 28,
            "componentType" : 5126,
            "count" : 2464,
            "type" : "VEC3"
        },
        {
            "bufferView" : 29,
            "componentType" : 5123,
            "count" : 3564,
            "type" : "SCALAR"
        },
        {
            "bufferView" : 30,
            "componentType" : 5126,
            "count" : 22382,
            "max" : [
                -15,
                94.83525085449219,
                -23.507532119750977
            ],
            "min" : [
                -114.99726867675781,
                73.97250366210938,
                -48.49143981933594
            ],
            "type" : "VEC3"
        },
        {
            "bufferView" : 31,
            "componentType" : 5126,
            "count" : 22382,
            "type" : "VEC3"
        },
        {
            "bufferView" : 32,
            "componentType" : 5123,
            "count" : 34011,
            "type" : "SCALAR"
        },
        {
            "bufferView" : 33,
            "componentType" : 5126,
            "count" : 946,
            "max" : [
                -43.5,
                85.90387725830078,
                -39.60982131958008
            ],
            "min" : [
                -46.5,
                82.90387725830078,
                -47.645042419433594
            ],
            "type" : "VEC3"
        },
        {
            "bufferView" : 34,
            "componentType" : 5126,
            "count" : 946,
            "type" : "VEC3"
        },
        {
            "bufferView" : 35,
            "componentType" : 5123,
            "count" : 1086,
            "type" : "SCALAR"
        },
        {
            "bufferView" : 36,
            "componentType" : 5126,
            "count" : 65535,
            "max" : [
                41.16655349731445,
                32.91461181640625,
                0
            ],
            "min" : [
                -41.16655349731445,
                23.80926513671875,
                -530
            ],
            "type" : "VEC3"
        },
        {
            "bufferView" : 37,
            "componentType" : 5126,
            "count" : 65535,
            "type" : "VEC3"
        },
        {
            "bufferView" : 38,
            "componentType" : 5123,
            "count" : 149580,
            "type" : "SCALAR"
        },
        {
            "bufferView" : 39,
            "componentType" : 5126,
            "count" : 10862,
            "max" : [
                41.01665115356445,
                32.77595520019531,
                0
            ],
            "min" : [
                -41.16655349731445,
                23.80926513671875,
                -530
            ],
            "type" : "VEC3"
        },
        {
            "bufferView" : 40,
            "componentType" : 5126,
            "count" : 10862,
            "type" : "VEC3"
        },
        {
            "bufferView" : 41,
            "componentType" : 5123,
            "count" : 34572,
            "type" : "SCALAR"
        },
        {
            "bufferView" : 42,
            "componentType" : 5126,
            "count" : 2229,
            "max" : [
                -22.712406158447266,
                30.724010467529297,
                0
            ],
            "min" : [
                -39.89131164550781,
                24.03201675415039,
                -393.098388671875
            ],
            "type" : "VEC3"
        },
        {
            "bufferView" : 43,
            "componentType" : 5126,
            "count" : 2229,
            "type" : "VEC3"
        },
        {
            "bufferView" : 44,
            "componentType" : 5123,
            "count" : 6423,
            "type" : "SCALAR"
        }
    ],
    "bufferViews" : [
        {
            "buffer" : 0,
            "byteLength" : 656316,
            "byteOffset" : 0
        },
        {
            "buffer" : 0,
            "byteLength" : 656316,
            "byteOffset" : 656316
        },
        {
            "buffer" : 0,
            "byteLength" : 437544,
            "byteOffset" : 1312632
        },
        {
            "buffer" : 0,
            "byteLength" : 335376,
            "byteOffset" : 1750176
        },
        {
            "buffer" : 0,
            "byteLength" : 638388,
            "byteOffset" : 2085552
        },
        {
            "buffer" : 0,
            "byteLength" : 638388,
            "byteOffset" : 2723940
        },
        {
            "buffer" : 0,
            "byteLength" : 425592,
            "byteOffset" : 3362328
        },
        {
            "buffer" : 0,
            "byteLength" : 425592,
            "byteOffset" : 3787920
        },
        {
            "buffer" : 0,
            "byteLength" : 344784,
            "byteOffset" : 4213512
        },
        {
            "buffer" : 0,
            "byteLength" : 54480,
            "byteOffset" : 4558296
        },
        {
            "buffer" : 0,
            "byteLength" : 54480,
            "byteOffset" : 4612776
        },
        {
            "buffer" : 0,
            "byteLength" : 36320,
            "byteOffset" : 4667256
        },
        {
            "buffer" : 0,
            "byteLength" : 13824,
            "byteOffset" : 4703576
        },
        {
            "buffer" : 0,
            "byteLength" : 631044,
            "byteOffset" : 4717400
        },
        {
            "buffer" : 0,
            "byteLength" : 631044,
            "byteOffset" : 5348444
        },
        {
            "buffer" : 0,
            "byteLength" : 137502,
            "byteOffset" : 5979488
        },
        {
            "buffer" : 0,
            "byteLength" : 130212,
            "byteOffset" : 6116992
        },
        {
            "buffer" : 0,
            "byteLength" : 130212,
            "byteOffset" : 6247204
        },
        {
            "buffer" : 0,
            "byteLength" : 35646,
            "byteOffset" : 6377416
        },
        {
            "buffer" : 0,
            "byteLength" : 7236,
            "byteOffset" : 6413064
        },
        {
            "buffer" : 0,
            "byteLength" : 7236,
            "byteOffset" : 6420300
        },
        {
            "buffer" : 0,
            "byteLength" : 4824,
            "byteOffset" : 6427536
        },
        {
            "buffer" : 0,
            "byteLength" : 2148,
            "byteOffset" : 6432360
        },
        {
            "buffer" : 0,
            "byteLength" : 6720,
            "byteOffset" : 6434508
        },
        {
            "buffer" : 0,
            "byteLength" : 6720,
            "byteOffset" : 6441228
        },
        {
            "buffer" : 0,
            "byteLength" : 4480,
            "byteOffset" : 6447948
        },
        {
            "buffer" : 0,
            "byteLength" : 2064,
            "byteOffset" : 6452428
        },
        {
            "buffer" : 0,
            "byteLength" : 29568,
            "byteOffset" : 6454492
        },
        {
            "buffer" : 0,
            "byteLength" : 29568,
            "byteOffset" : 6484060
        },
        {
            "buffer" : 0,
            "byteLength" : 7128,
            "byteOffset" : 6513628
        },
        {
            "buffer" : 0,
            "byteLength" : 268584,
            "byteOffset" : 6520756
        },
        {
            "buffer" : 0,
            "byteLength" : 268584,
            "byteOffset" : 6789340
        },
        {
            "buffer" : 0,
            "byteLength" : 68022,
            "byteOffset" : 7057924
        },
        {
            "buffer" : 0,
            "byteLength" : 11352,
            "byteOffset" : 7125948
        },
        {
            "buffer" : 0,
            "byteLength" : 11352,
            "byteOffset" : 7137300
        },
        {
            "buffer" : 0,
            "byteLength" : 2172,
            "byteOffset" : 7148652
        },
        {
            "buffer" : 0,
            "byteLength" : 786420,
            "byteOffset" : 7150824
        },
        {
            "buffer" : 0,
            "byteLength" : 786420,
            "byteOffset" : 7937244
        },
        {
            "buffer" : 0,
            "byteLength" : 299160,
            "byteOffset" : 8723664
        },
        {
            "buffer" : 0,
            "byteLength" : 130344,
            "byteOffset" : 9022824
        },
        {
            "buffer" : 0,
            "byteLength" : 130344,
            "byteOffset" : 9153168
        },
        {
            "buffer" : 0,
            "byteLength" : 69144,
            "byteOffset" : 9283512
        },
        {
            "buffer" : 0,
            "byteLength" : 26748,
            "byteOffset" : 9352656
        },
        {
            "buffer" : 0,
            "byteLength" : 26748,
            "byteOffset" : 9379404
        },
        {
            "buffer" : 0,
            "byteLength" : 12846,
            "byteOffset" : 9406152
        }
    ],
    "buffers" : [
        {
            "byteLength" : 9419000,
            "uri" : "Inquieta_BLEND.bin"
        }
    ]
}
